# xmcd CD database file
#
# Track frame offsets:
#	150
#	21147
#	43187
#	61977
#	83192
#	109680
#	133230
#	153502
#	170395
#	185510
#
# Disc length: 2771 seconds
#
# Revision: 4
# Processed by: cddbd v1.5.2PL0 Copyright (c) Steve Scherf et al.
# Submitted via: CDex 1.51
#
DISCID=830ad10a
DTITLE=Gladys Knight and The Pips - The Best Of Gladys Knight and The Pips: The Columbia Years
DYEAR=1988
DGENRE=Soul/R&B
TTITLE0=Taste Of Bitter Love
TTITLE1=Ain't No Greater Love
TTITLE2=I Will Fight
TTITLE3=Save The Overtime (For Me)
TTITLE4=When You're Far Away
TTITLE5=You're Numer One (In My Book)
TTITLE6=Landlord
TTITLE7=Hero
TTITLE8=A Friend Of Mine
TTITLE9=My Time
EXTD=YEAR: 1988
EXTT0=
EXTT1=
EXTT2=
EXTT3=
EXTT4=
EXTT5=
EXTT6=
EXTT7=
EXTT8=
EXTT9=
PLAYORDER=
